<?xml version="1.0" encoding="UTF-8"?>
<!DOCTYPE svg PUBLIC "-//W3C//DTD SVG 1.1//EN"
        "http://www.w3.org/Graphics/SVG/1.1/DTD/svg11.dtd">
<svg
  xmlns="http://www.w3.org/2000/svg"
  xmlns:xlink="http://www.w3.org/1999/xlink"
  version="1.1"
  width="720pt"
  height="540pt"
  viewBox="0 0 720 540"
  >
  <rect
    x="0"
    y="0"
    width="720"
    height="540"
    stroke="none"
    fill="#FFFFFF"
    fill-opacity="1.000000"
    />
  <g
    transform="matrix(1 0 0 -1 0 540)"
    >
    <polyline
      stroke-width="1.000000e+00"
      stroke="#000000"
      stroke-opacity="1.000000"
      fill="none"
      points="100.79,63.00 657.00,63.00"
      />
    <polyline
      stroke-width="1.000000e+00"
      stroke="#000000"
      stroke-opacity="1.000000"
      fill="none"
      points="129.82,63.00 129.82,67.72"
      />
    <polyline
      stroke-width="1.000000e+00"
      stroke="#000000"
      stroke-opacity="1.000000"
      fill="none"
      points="160.38,63.00 160.38,67.72"
      />
    <polyline
      stroke-width="1.000000e+00"
      stroke="#000000"
      stroke-opacity="1.000000"
      fill="none"
      points="190.95,63.00 190.95,67.72"
      />
    <polyline
      stroke-width="1.000000e+00"
      stroke="#000000"
      stroke-opacity="1.000000"
      fill="none"
      points="221.51,63.00 221.51,67.72"
      />
    <polyline
      stroke-width="1.000000e+00"
      stroke="#000000"
      stroke-opacity="1.000000"
      fill="none"
      points="252.06,63.00 252.06,72.45"
      />
    <polyline
      stroke-width="1.000000e+00"
      stroke="#000000"
      stroke-opacity="1.000000"
      fill="none"
      points="282.62,63.00 282.62,67.72"
      />
    <polyline
      stroke-width="1.000000e+00"
      stroke="#000000"
      stroke-opacity="1.000000"
      fill="none"
      points="313.19,63.00 313.19,67.72"
      />
    <polyline
      stroke-width="1.000000e+00"
      stroke="#000000"
      stroke-opacity="1.000000"
      fill="none"
      points="343.75,63.00 343.75,67.72"
      />
    <polyline
      stroke-width="1.000000e+00"
      stroke="#000000"
      stroke-opacity="1.000000"
      fill="none"
      points="374.32,63.00 374.32,67.72"
      />
    <polyline
      stroke-width="1.000000e+00"
      stroke="#000000"
      stroke-opacity="1.000000"
      fill="none"
      points="404.86,63.00 404.86,72.45"
      />
    <polyline
      stroke-width="1.000000e+00"
      stroke="#000000"
      stroke-opacity="1.000000"
      fill="none"
      points="435.42,63.00 435.42,67.72"
      />
    <polyline
      stroke-width="1.000000e+00"
      stroke="#000000"
      stroke-opacity="1.000000"
      fill="none"
      points="465.99,63.00 465.99,67.72"
      />
    <polyline
      stroke-width="1.000000e+00"
      stroke="#000000"
      stroke-opacity="1.000000"
      fill="none"
      points="496.55,63.00 496.55,67.72"
      />
    <polyline
      stroke-width="1.000000e+00"
      stroke="#000000"
      stroke-opacity="1.000000"
      fill="none"
      points="527.12,63.00 527.12,67.72"
      />
    <polyline
      stroke-width="1.000000e+00"
      stroke="#000000"
      stroke-opacity="1.000000"
      fill="none"
      points="557.66,63.00 557.66,72.45"
      />
    <polyline
      stroke-width="1.000000e+00"
      stroke="#000000"
      stroke-opacity="1.000000"
      fill="none"
      points="588.23,63.00 588.23,67.72"
      />
    <polyline
      stroke-width="1.000000e+00"
      stroke="#000000"
      stroke-opacity="1.000000"
      fill="none"
      points="618.79,63.00 618.79,67.72"
      />
    <polyline
      stroke-width="1.000000e+00"
      stroke="#000000"
      stroke-opacity="1.000000"
      fill="none"
      points="649.36,63.00 649.36,67.72"
      />
    <polyline
      stroke-width="1.000000e+00"
      stroke="#000000"
      stroke-opacity="1.000000"
      fill="none"
      points="657.00,63.00 657.00,477.00"
      />
    <polyline
      stroke-width="1.000000e+00"
      stroke="#000000"
      stroke-opacity="1.000000"
      fill="none"
      points="647.55,63.00 657.00,63.00"
      />
    <polyline
      stroke-width="1.000000e+00"
      stroke="#000000"
      stroke-opacity="1.000000"
      fill="none"
      points="652.28,85.96 657.00,85.96"
      />
    <polyline
      stroke-width="1.000000e+00"
      stroke="#000000"
      stroke-opacity="1.000000"
      fill="none"
      points="652.28,108.92 657.00,108.92"
      />
    <polyline
      stroke-width="1.000000e+00"
      stroke="#000000"
      stroke-opacity="1.000000"
      fill="none"
      points="652.28,131.88 657.00,131.88"
      />
    <polyline
      stroke-width="1.000000e+00"
      stroke="#000000"
      stroke-opacity="1.000000"
      fill="none"
      points="652.28,154.85 657.00,154.85"
      />
    <polyline
      stroke-width="1.000000e+00"
      stroke="#000000"
      stroke-opacity="1.000000"
      fill="none"
      points="647.55,177.81 657.00,177.81"
      />
    <polyline
      stroke-width="1.000000e+00"
      stroke="#000000"
      stroke-opacity="1.000000"
      fill="none"
      points="652.28,200.77 657.00,200.77"
      />
    <polyline
      stroke-width="1.000000e+00"
      stroke="#000000"
      stroke-opacity="1.000000"
      fill="none"
      points="652.28,223.73 657.00,223.73"
      />
    <polyline
      stroke-width="1.000000e+00"
      stroke="#000000"
      stroke-opacity="1.000000"
      fill="none"
      points="652.28,246.69 657.00,246.69"
      />
    <polyline
      stroke-width="1.000000e+00"
      stroke="#000000"
      stroke-opacity="1.000000"
      fill="none"
      points="652.28,269.66 657.00,269.66"
      />
    <polyline
      stroke-width="1.000000e+00"
      stroke="#000000"
      stroke-opacity="1.000000"
      fill="none"
      points="647.55,292.62 657.00,292.62"
      />
    <polyline
      stroke-width="1.000000e+00"
      stroke="#000000"
      stroke-opacity="1.000000"
      fill="none"
      points="652.28,315.56 657.00,315.56"
      />
    <polyline
      stroke-width="1.000000e+00"
      stroke="#000000"
      stroke-opacity="1.000000"
      fill="none"
      points="652.28,338.52 657.00,338.52"
      />
    <polyline
      stroke-width="1.000000e+00"
      stroke="#000000"
      stroke-opacity="1.000000"
      fill="none"
      points="652.28,361.48 657.00,361.48"
      />
    <polyline
      stroke-width="1.000000e+00"
      stroke="#000000"
      stroke-opacity="1.000000"
      fill="none"
      points="652.28,384.45 657.00,384.45"
      />
    <polyline
      stroke-width="1.000000e+00"
      stroke="#000000"
      stroke-opacity="1.000000"
      fill="none"
      points="647.55,407.41 657.00,407.41"
      />
    <polyline
      stroke-width="1.000000e+00"
      stroke="#000000"
      stroke-opacity="1.000000"
      fill="none"
      points="652.28,430.37 657.00,430.37"
      />
    <polyline
      stroke-width="1.000000e+00"
      stroke="#000000"
      stroke-opacity="1.000000"
      fill="none"
      points="652.28,453.33 657.00,453.33"
      />
    <polyline
      stroke-width="1.000000e+00"
      stroke="#000000"
      stroke-opacity="1.000000"
      fill="none"
      points="652.28,476.29 657.00,476.29"
      />
    <polyline
      stroke-width="1.000000e+00"
      stroke="#000000"
      stroke-opacity="1.000000"
      fill="none"
      points="657.00,477.00 100.79,477.00"
      />
    <polyline
      stroke-width="1.000000e+00"
      stroke="#000000"
      stroke-opacity="1.000000"
      fill="none"
      points="649.36,472.27 649.36,477.00"
      />
    <polyline
      stroke-width="1.000000e+00"
      stroke="#000000"
      stroke-opacity="1.000000"
      fill="none"
      points="618.79,472.27 618.79,477.00"
      />
    <polyline
      stroke-width="1.000000e+00"
      stroke="#000000"
      stroke-opacity="1.000000"
      fill="none"
      points="588.23,472.27 588.23,477.00"
      />
    <polyline
      stroke-width="1.000000e+00"
      stroke="#000000"
      stroke-opacity="1.000000"
      fill="none"
      points="557.66,467.55 557.66,477.00"
      />
    <polyline
      stroke-width="1.000000e+00"
      stroke="#000000"
      stroke-opacity="1.000000"
      fill="none"
      points="527.12,472.27 527.12,477.00"
      />
    <polyline
      stroke-width="1.000000e+00"
      stroke="#000000"
      stroke-opacity="1.000000"
      fill="none"
      points="496.55,472.27 496.55,477.00"
      />
    <polyline
      stroke-width="1.000000e+00"
      stroke="#000000"
      stroke-opacity="1.000000"
      fill="none"
      points="465.99,472.27 465.99,477.00"
      />
    <polyline
      stroke-width="1.000000e+00"
      stroke="#000000"
      stroke-opacity="1.000000"
      fill="none"
      points="435.42,472.27 435.42,477.00"
      />
    <polyline
      stroke-width="1.000000e+00"
      stroke="#000000"
      stroke-opacity="1.000000"
      fill="none"
      points="404.86,467.55 404.86,477.00"
      />
    <polyline
      stroke-width="1.000000e+00"
      stroke="#000000"
      stroke-opacity="1.000000"
      fill="none"
      points="374.32,472.27 374.32,477.00"
      />
    <polyline
      stroke-width="1.000000e+00"
      stroke="#000000"
      stroke-opacity="1.000000"
      fill="none"
      points="343.75,472.27 343.75,477.00"
      />
    <polyline
      stroke-width="1.000000e+00"
      stroke="#000000"
      stroke-opacity="1.000000"
      fill="none"
      points="313.19,472.27 313.19,477.00"
      />
    <polyline
      stroke-width="1.000000e+00"
      stroke="#000000"
      stroke-opacity="1.000000"
      fill="none"
      points="282.62,472.27 282.62,477.00"
      />
    <polyline
      stroke-width="1.000000e+00"
      stroke="#000000"
      stroke-opacity="1.000000"
      fill="none"
      points="252.06,467.55 252.06,477.00"
      />
    <polyline
      stroke-width="1.000000e+00"
      stroke="#000000"
      stroke-opacity="1.000000"
      fill="none"
      points="221.51,472.27 221.51,477.00"
      />
    <polyline
      stroke-width="1.000000e+00"
      stroke="#000000"
      stroke-opacity="1.000000"
      fill="none"
      points="190.95,472.27 190.95,477.00"
      />
    <polyline
      stroke-width="1.000000e+00"
      stroke="#000000"
      stroke-opacity="1.000000"
      fill="none"
      points="160.38,472.27 160.38,477.00"
      />
    <polyline
      stroke-width="1.000000e+00"
      stroke="#000000"
      stroke-opacity="1.000000"
      fill="none"
      points="129.82,472.27 129.82,477.00"
      />
    <polyline
      stroke-width="1.000000e+00"
      stroke="#000000"
      stroke-opacity="1.000000"
      fill="none"
      points="100.79,477.00 100.79,63.00"
      />
    <polyline
      stroke-width="1.000000e+00"
      stroke="#000000"
      stroke-opacity="1.000000"
      fill="none"
      points="100.79,476.29 105.52,476.29"
      />
    <polyline
      stroke-width="1.000000e+00"
      stroke="#000000"
      stroke-opacity="1.000000"
      fill="none"
      points="100.79,453.33 105.52,453.33"
      />
    <polyline
      stroke-width="1.000000e+00"
      stroke="#000000"
      stroke-opacity="1.000000"
      fill="none"
      points="100.79,430.37 105.52,430.37"
      />
    <polyline
      stroke-width="1.000000e+00"
      stroke="#000000"
      stroke-opacity="1.000000"
      fill="none"
      points="100.79,407.41 110.24,407.41"
      />
    <polyline
      stroke-width="1.000000e+00"
      stroke="#000000"
      stroke-opacity="1.000000"
      fill="none"
      points="100.79,384.45 105.52,384.45"
      />
    <polyline
      stroke-width="1.000000e+00"
      stroke="#000000"
      stroke-opacity="1.000000"
      fill="none"
      points="100.79,361.48 105.52,361.48"
      />
    <polyline
      stroke-width="1.000000e+00"
      stroke="#000000"
      stroke-opacity="1.000000"
      fill="none"
      points="100.79,338.52 105.52,338.52"
      />
    <polyline
      stroke-width="1.000000e+00"
      stroke="#000000"
      stroke-opacity="1.000000"
      fill="none"
      points="100.79,315.56 105.52,315.56"
      />
    <polyline
      stroke-width="1.000000e+00"
      stroke="#000000"
      stroke-opacity="1.000000"
      fill="none"
      points="100.79,292.62 110.24,292.62"
      />
    <polyline
      stroke-width="1.000000e+00"
      stroke="#000000"
      stroke-opacity="1.000000"
      fill="none"
      points="100.79,269.66 105.52,269.66"
      />
    <polyline
      stroke-width="1.000000e+00"
      stroke="#000000"
      stroke-opacity="1.000000"
      fill="none"
      points="100.79,246.69 105.52,246.69"
      />
    <polyline
      stroke-width="1.000000e+00"
      stroke="#000000"
      stroke-opacity="1.000000"
      fill="none"
      points="100.79,223.73 105.52,223.73"
      />
    <polyline
      stroke-width="1.000000e+00"
      stroke="#000000"
      stroke-opacity="1.000000"
      fill="none"
      points="100.79,200.77 105.52,200.77"
      />
    <polyline
      stroke-width="1.000000e+00"
      stroke="#000000"
      stroke-opacity="1.000000"
      fill="none"
      points="100.79,177.81 110.24,177.81"
      />
    <polyline
      stroke-width="1.000000e+00"
      stroke="#000000"
      stroke-opacity="1.000000"
      fill="none"
      points="100.79,154.85 105.52,154.85"
      />
    <polyline
      stroke-width="1.000000e+00"
      stroke="#000000"
      stroke-opacity="1.000000"
      fill="none"
      points="100.79,131.88 105.52,131.88"
      />
    <polyline
      stroke-width="1.000000e+00"
      stroke="#000000"
      stroke-opacity="1.000000"
      fill="none"
      points="100.79,108.92 105.52,108.92"
      />
    <polyline
      stroke-width="1.000000e+00"
      stroke="#000000"
      stroke-opacity="1.000000"
      fill="none"
      points="100.79,85.96 105.52,85.96"
      />
    <polyline
      stroke-width="1.000000e+00"
      stroke="#000000"
      stroke-opacity="1.000000"
      fill="none"
      points="100.79,63.00 110.24,63.00"
      />
    <clipPath
      id="text-clipping0"
      >
      <polygon
        points="0.000000,0.000000 0.000000,539.994507 720.000000,539.994507 720.000000,0.000000"
        />
    </clipPath>
    <g
      clip-path="url(#text-clipping0)"
      >
      <text
        dominant-baseline="no-change"
        fill="#000000"
        fill-opacity="1.000000"
        xml:space="preserve"
        font-size="16"
        transform="matrix(1.000000 0.000000 0.000000 -1.000000 252.078005 44.100467)"
        text-anchor="middle"
        x="0.000000"
        y="6.451584"
><tspan font-family="sans-serif" font-style="normal" font-weight="normal">&#x31;&#x30;&#x30;</tspan></text>
    </g>
    <g
      clip-path="url(#text-clipping0)"
      >
      <text
        dominant-baseline="no-change"
        fill="#000000"
        fill-opacity="1.000000"
        xml:space="preserve"
        font-size="16"
        transform="matrix(1.000000 0.000000 0.000000 -1.000000 404.880520 44.100467)"
        text-anchor="middle"
        x="0.000000"
        y="6.451584"
><tspan font-family="sans-serif" font-style="normal" font-weight="normal">&#x32;&#x30;&#x30;</tspan></text>
    </g>
    <g
      clip-path="url(#text-clipping0)"
      >
      <text
        dominant-baseline="no-change"
        fill="#000000"
        fill-opacity="1.000000"
        xml:space="preserve"
        font-size="16"
        transform="matrix(1.000000 0.000000 0.000000 -1.000000 557.683035 44.100467)"
        text-anchor="middle"
        x="0.000000"
        y="6.451584"
><tspan font-family="sans-serif" font-style="normal" font-weight="normal">&#x33;&#x30;&#x30;</tspan></text>
    </g>
    <g
      clip-path="url(#text-clipping0)"
      >
      <text
        dominant-baseline="no-change"
        fill="#000000"
        fill-opacity="1.000000"
        xml:space="preserve"
        font-size="16"
        transform="matrix(1.000000 0.000000 0.000000 -1.000000 94.507279 62.997528)"
        text-anchor="end"
        x="0.000000"
        y="6.451584"
><tspan font-family="sans-serif" font-style="normal" font-weight="normal">&#x30;</tspan></text>
    </g>
    <g
      clip-path="url(#text-clipping0)"
      >
      <text
        dominant-baseline="no-change"
        fill="#000000"
        fill-opacity="1.000000"
        xml:space="preserve"
        font-size="16"
        transform="matrix(1.000000 0.000000 0.000000 -1.000000 94.507279 177.808161)"
        text-anchor="end"
        x="0.000000"
        y="6.451584"
><tspan font-family="sans-serif" font-style="normal" font-weight="normal">&#x31;&#x30;&#x30;&#x30;</tspan></text>
    </g>
    <g
      clip-path="url(#text-clipping0)"
      >
      <text
        dominant-baseline="no-change"
        fill="#000000"
        fill-opacity="1.000000"
        xml:space="preserve"
        font-size="16"
        transform="matrix(1.000000 0.000000 0.000000 -1.000000 94.507279 292.618793)"
        text-anchor="end"
        x="0.000000"
        y="6.451584"
><tspan font-family="sans-serif" font-style="normal" font-weight="normal">&#x32;&#x30;&#x30;&#x30;</tspan></text>
    </g>
    <g
      clip-path="url(#text-clipping0)"
      >
      <text
        dominant-baseline="no-change"
        fill="#000000"
        fill-opacity="1.000000"
        xml:space="preserve"
        font-size="16"
        transform="matrix(1.000000 0.000000 0.000000 -1.000000 94.507279 407.429426)"
        text-anchor="end"
        x="0.000000"
        y="6.451584"
><tspan font-family="sans-serif" font-style="normal" font-weight="normal">&#x33;&#x30;&#x30;&#x30;</tspan></text>
    </g>
    <g
      clip-path="url(#text-clipping0)"
      >
      <text
        dominant-baseline="no-change"
        fill="#000000"
        fill-opacity="1.000000"
        xml:space="preserve"
        font-size="16"
        transform="matrix(1.000000 0.000000 0.000000 -1.000000 378.908048 502.200385)"
        text-anchor="middle"
        x="0.000000"
        y="6.451584"
><tspan font-family="sans-serif" font-style="normal" font-weight="normal">&#x44;&#xe9;&#x63;&#xe8;&#x73;&#x20;&#x65;&#x6e;&#x20;&#x46;&#x72;&#x61;&#x6e;&#x63;&#x65;&#x20;&#x65;&#x6e;&#x20;&#x32;&#x30;&#x30;&#x33;</tspan></text>
    </g>
    <g
      clip-path="url(#text-clipping0)"
      >
      <text
        dominant-baseline="no-change"
        fill="#000000"
        fill-opacity="1.000000"
        xml:space="preserve"
        font-size="16"
        transform="matrix(1.000000 0.000000 0.000000 -1.000000 378.908048 22.676473)"
        text-anchor="middle"
        x="0.000000"
        y="6.451584"
><tspan font-family="sans-serif" font-style="normal" font-weight="normal">&#x6a;&#x6f;&#x75;&#x72;&#x20;&#x64;&#x65;&#x20;&#x6c;&#x27;&#x61;&#x6e;&#x6e;&#xe9;&#x65;</tspan></text>
    </g>
    <g
      clip-path="url(#text-clipping0)"
      >
      <text
        dominant-baseline="no-change"
        fill="#000000"
        fill-opacity="1.000000"
        xml:space="preserve"
        font-size="16"
        transform="matrix(0.000000 1.000000 1.000000 -0.000000 37.794122 270.008240)"
        text-anchor="middle"
        x="0.000000"
        y="6.451584"
><tspan font-family="sans-serif" font-style="normal" font-weight="normal">&#x6e;&#x6f;&#x6d;&#x62;&#x72;&#x65;&#x20;&#x64;&#x65;&#x20;&#x64;&#xe9;&#x63;&#xe8;&#x73;&#x20;&#x70;&#x61;&#x72;&#x20;&#x6a;&#x6f;&#x75;&#x72;</tspan></text>
    </g>
    <polyline
      stroke-width="1.000000e+00"
      stroke="#0000FF"
      stroke-opacity="1.000000"
      fill="none"
      points="100.79,248.98 102.31,267.59 103.85,257.24 105.38,245.77 106.90,241.40 108.44,251.75 109.95,256.21 111.49,260.34 113.01,267.13 114.55,255.64 
      116.06,251.16 117.60,265.50 119.12,263.44 120.66,266.43 122.17,275.28 123.71,260.91 125.25,260.69 126.76,259.09 128.30,265.86 129.82,274.69 
      131.36,265.86 132.87,257.59 134.41,254.60 135.93,240.37 137.47,248.98 138.98,241.86 140.52,260.47 142.04,244.39 143.57,244.50 145.11,254.39 
      146.63,248.52 148.17,244.50 149.68,242.10 151.22,258.85 152.74,261.26 154.27,248.30 155.79,249.09 157.33,252.32 158.85,248.63 160.38,246.34 
      161.92,249.90 163.44,250.47 164.98,255.75 166.49,249.09 168.03,246.45 169.55,247.27 171.08,232.35 172.60,252.08 174.14,258.74 175.65,253.68 
      177.19,252.54 178.71,250.47 180.25,249.55 181.79,258.05 183.30,255.29 184.84,255.07 186.36,253.00 187.89,259.20 189.41,256.45 190.95,255.53 
      192.46,247.38 194.00,255.42 195.52,249.90 197.06,252.08 198.57,243.00 200.11,247.38 201.65,241.53 203.17,235.55 204.70,245.99 206.22,251.16 
      207.76,246.23 209.27,240.94 210.81,240.48 212.33,238.87 213.87,238.54 215.38,241.75 216.92,241.75 218.44,243.93 219.97,236.13 221.51,245.31 
      223.03,244.74 224.57,236.02 226.08,245.88 227.62,244.39 229.14,235.55 230.68,233.25 232.19,244.04 233.73,236.48 235.25,230.04 236.78,236.81 
      238.30,244.17 239.84,231.07 241.38,225.09 242.89,233.82 244.43,239.22 245.95,229.23 247.49,236.94 249.00,239.33 250.54,239.69 252.06,240.26 
      253.59,236.24 255.11,242.78 256.65,236.70 258.19,246.23 259.70,244.50 261.24,244.50 262.76,250.01 264.30,240.72 265.81,239.33 267.35,230.72 
      268.87,234.17 270.40,247.38 271.92,241.86 273.46,231.75 274.97,244.28 276.51,233.49 278.05,228.32 279.57,236.94 281.10,236.81 282.62,235.44 
      284.16,229.69 285.68,228.90 287.21,227.75 288.73,222.13 290.27,236.13 291.78,231.29 293.32,226.13 294.84,227.16 296.38,221.21 297.91,223.16 
      299.43,226.48 300.97,229.82 302.48,226.13 304.02,215.23 305.54,225.56 307.08,228.90 308.59,225.91 310.13,230.96 311.65,225.34 313.19,218.57 
      314.70,225.56 316.24,225.45 317.78,234.06 319.29,226.37 320.83,216.37 322.35,221.43 323.89,228.43 325.40,223.95 326.94,226.02 328.46,241.29 
      330.00,237.62 331.51,239.58 333.05,245.77 334.59,227.40 336.10,234.85 337.64,221.32 339.16,220.63 340.70,231.18 342.21,228.08 343.75,221.21 
      345.27,230.85 346.81,230.72 348.32,230.85 349.86,235.77 351.38,239.22 352.91,236.35 354.45,230.85 355.97,238.41 357.51,216.48 359.02,227.16 
      360.56,225.67 362.08,232.57 363.61,231.88 365.13,233.03 366.67,228.90 368.19,236.94 369.72,238.30 371.24,233.60 372.78,221.67 374.32,222.13 
      375.83,224.63 377.37,227.40 378.89,218.33 380.42,215.91 381.94,220.28 383.48,221.32 384.99,221.21 386.53,228.32 388.05,226.72 389.59,224.06 
      391.10,227.05 392.64,241.53 394.18,234.28 395.70,234.17 397.23,233.71 398.75,262.65 400.29,256.21 401.80,229.36 403.34,231.99 404.86,233.60 
      406.40,235.55 407.91,239.11 409.45,237.38 410.97,229.58 412.51,228.32 414.04,216.83 415.56,231.75 417.10,223.49 418.61,220.85 420.15,219.36 
      421.67,225.80 423.21,214.88 424.72,217.29 426.26,230.39 427.78,235.20 429.31,254.96 430.85,286.07 432.37,310.86 433.91,333.14 435.42,360.58 
      436.96,363.55 438.48,382.73 440.02,436.35 441.53,477.00 443.07,448.17 444.59,337.16 446.12,279.63 447.64,250.94 449.18,249.79 450.72,249.09 
      452.23,234.63 453.77,223.60 455.29,226.02 456.83,220.96 458.34,226.83 459.88,231.75 461.40,234.17 462.93,221.54 464.45,229.93 465.99,232.92 
      467.50,230.96 469.04,218.11 470.58,204.79 472.10,217.65 473.64,218.68 475.15,216.48 476.69,218.44 478.21,226.37 479.74,225.45 481.26,215.91 
      482.80,229.01 484.31,230.61 485.85,219.25 487.37,226.72 488.91,231.42 490.44,220.74 "/>
    <polyline
      stroke-width="1.000000e+00"
      stroke="#0000FF"
      stroke-opacity="1.000000"
      fill="none"
      points="490.44,220.74 491.96,217.54 493.50,227.16 495.02,233.82 496.55,225.45 498.07,228.19 499.61,228.08 501.12,231.07 502.66,228.19 504.18,240.26 
      505.72,230.50 507.23,221.21 508.77,224.06 510.31,226.59 511.82,226.83 513.36,217.40 514.88,232.92 516.42,227.40 517.93,232.57 519.47,231.42 
      520.99,221.32 522.53,225.45 524.04,216.83 525.58,229.47 527.12,218.68 528.63,231.53 530.17,226.59 531.69,230.04 533.23,230.96 534.74,224.52 
      536.28,227.29 537.80,234.06 539.34,224.06 540.85,227.86 542.39,223.03 543.91,228.54 545.44,220.63 546.98,234.74 548.50,231.75 550.04,230.85 
      551.55,239.90 553.09,226.72 554.61,228.08 556.14,228.90 557.66,237.73 559.20,237.51 560.72,230.72 562.25,243.24 563.77,236.70 565.31,236.02 
      566.85,227.97 568.36,231.42 569.90,245.99 571.42,233.25 572.95,234.17 574.47,241.86 576.01,230.72 577.52,235.31 579.06,240.15 580.58,230.96 
      582.12,234.63 583.63,231.53 585.17,226.72 586.71,239.79 588.23,232.35 589.76,227.05 591.28,231.18 592.82,234.74 594.33,236.13 595.87,227.75 
      597.39,239.00 598.93,236.24 600.44,238.08 601.98,230.61 603.52,236.59 605.04,238.19 606.57,237.51 608.09,242.43 609.63,234.17 611.14,240.61 
      612.68,243.00 614.20,241.40 615.74,234.28 617.25,233.95 618.79,232.10 620.31,241.07 621.85,243.00 623.38,251.29 624.90,246.45 626.44,255.75 
      627.95,265.86 629.49,259.31 631.01,255.18 632.55,253.35 634.06,247.95 635.60,248.98 637.12,263.68 638.65,259.88 640.17,259.55 641.71,257.81 
      643.25,261.50 644.76,255.64 646.30,251.40 647.82,264.93 649.36,264.03 650.87,271.94 652.41,261.15 653.93,261.97 655.46,255.75 656.98,268.73 
      "/>
  </g>
</svg>
